<?xml version="1.0" encoding="UTF-8" standalone="no"?>
<svg width="224px" height="37px" viewBox="0 0 224 37" version="1.1" xmlns="http://www.w3.org/2000/svg" xmlns:xlink="http://www.w3.org/1999/xlink" xmlns:sketch="http://www.bohemiancoding.com/sketch/ns">
    <!-- Generator: Sketch 3.2.2 (9983) - http://www.bohemiancoding.com/sketch -->
    <title>Imported Layers 11</title>
    <desc>Created with Sketch.</desc>
    <defs>
        <path id="path-1" d="M0,-0.134724282 L223.333661,-0.134724282 L223.333661,35.8859262 L0,35.8859262 L0,-0.134724282 Z"></path>
    </defs>
    <g id="Home" stroke="none" stroke-width="1" fill="none" fill-rule="evenodd" sketch:type="MSPage">
        <g id="WF-1" sketch:type="MSArtboardGroup" transform="translate(-68.000000, -47.000000)">
            <g id="Menu-4" sketch:type="MSLayerGroup" transform="translate(-2.000000, -1.000000)">
                <g id="Imported-Layers-11" transform="translate(71.000000, 48.000000)">
                    <g id="Group-3" transform="translate(-0.446911, 0.270758)">
                        <mask id="mask-2" sketch:name="Clip 2" fill="white">
                            <use xlink:href="#path-1"></use>
                        </mask>
                        <g id="Clip-2"></g>
                        <path d="M34.6208203,22.0453023 C34.1104075,23.6924055 32.5547476,24.8900222 30.7167123,24.8900222 C30.7167123,24.8900222 28.5947751,24.8465334 26.9383758,24.3958305 L26.9395969,24.3927893 C26.0820913,24.2705338 25.2868609,24.8568734 25.1635315,25.7026256 C24.5636744,31.3692566 18.9439446,35.9066975 13.1547895,35.4426134 C12.823876,35.4426134 12.5805752,35.1807677 12.5805752,34.8547532 C12.5805752,34.59382 12.7533585,34.3718138 12.9911644,34.2933514 L12.9978803,34.2933514 C16.9251889,33.0002416 20.568901,29.1519321 20.9675846,24.948717 C21.0411549,24.4314123 20.7322208,23.4995946 19.8402196,23.4074469 C19.0895588,23.3289844 18.5296922,24.1434125 18.3590458,24.5129159 C16.3521957,29.2319152 13.3956482,30.852256 10.7376555,31.6648593 C7.46912124,32.6651035 5.73090942,31.9172773 3.4044408,35.6551919 C3.23989985,35.8680745 2.94073448,35.949274 2.68003324,35.8321885 C2.37842571,35.6962478 2.31035032,35.3678003 2.38483639,35.0487805 C2.974009,32.5303792 3.3992512,30.8957449 7.80644545,27.994459 C10.7153707,26.0915925 11.2163201,24.47186 11.4996114,21.7685549 C11.5890557,20.9215862 11.2349416,19.619657 9.77177874,19.6820012 C6.82255773,19.8076019 5.46379748,22.1213318 4.84745578,24.7972662 C4.22897718,27.4732007 2.84213202,28.1623321 0.917705021,29.092325 C0.825818516,29.1482827 0.716531576,29.1814316 0.601139221,29.1814316 C0.26839407,29.1814316 6.10541561e-05,28.9165448 6.10541561e-05,28.5902262 C6.10541561e-05,28.4260024 0.0678311674,28.2797217 0.177118107,28.1717598 C2.24960144,25.9836306 2.25845429,25.1257137 2.40651062,21.3801962 C2.50724997,18.7866777 4.6780305,15.1071538 7.09394345,14.4502589 C7.96457572,14.2136551 8.17612837,13.1340361 7.7850765,12.3713081 L7.78263433,12.353061 C7.04998446,11.2296491 6.40128405,10.0490629 5.83897527,8.82012201 L5.84965975,8.81616848 C5.60635894,8.30038432 5.46929236,7.72560126 5.46929236,7.11827758 C5.46929236,5.81026598 6.05541226,4.61295334 7.0380789,3.87790009 C10.0440803,1.37440056 13.928651,-0.134937165 18.1719148,-0.134937165 C27.7039949,-0.134937165 35.4303984,7.48230685 35.4303984,16.8774248 C35.4303984,18.6887517 35.1431386,20.4346933 34.6119674,22.0732811 L34.6208203,22.0453023 Z" id="Fill-1" fill="#FEFEFE" sketch:type="MSShapeGroup" mask="url(#mask-2)"></path>
                    </g>
                    <path d="M171.886199,30.7603833 L162.858121,30.7603833 C160.196465,30.7603833 158.269901,30.2281768 157.086976,29.1683255 C155.902526,28.1051289 155.310911,26.4057174 155.310911,24.0661375 L155.310911,12.4579527 L160.10061,12.4579527 L160.10061,23.6771705 C160.10061,24.8975961 160.30911,25.7126324 160.730688,26.1201506 C161.151046,26.5276687 161.98993,26.7317319 163.244899,26.7317319 L167.096195,26.7317319 L167.096195,12.4579527 L171.886199,12.4579527 L171.886199,30.7603833 Z M192.630264,30.7603833 L183.602186,30.7603833 C180.939309,30.7603833 179.015798,30.2281768 177.830126,29.1683255 C176.646591,28.1051289 176.052534,26.4057174 176.052534,24.0661375 L176.052534,12.4579527 L180.845285,12.4579527 L180.845285,23.6771705 C180.845285,24.8975961 181.052564,25.7126324 181.473533,26.1201506 C181.893891,26.5276687 182.731554,26.7317319 183.988048,26.7317319 L187.837818,26.7317319 L187.837818,12.4579527 L192.630264,12.4579527 L192.630264,30.7603833 Z M134.784504,12.4579527 L143.807392,12.4579527 C146.532544,12.4579527 148.480477,12.9761698 149.646001,14.0104752 C150.814883,15.0475176 151.395508,16.764568 151.395508,19.1640591 L151.395508,30.7603833 L146.607031,30.7603833 L146.607031,19.7580016 C146.607031,18.3900788 146.395478,17.5038789 145.972678,17.0963607 C145.551709,16.6894508 144.707636,16.4856917 143.436488,16.4856917 L139.57695,16.4856917 L139.57695,30.7603833 L134.784504,30.7603833 L134.784504,12.4579527 Z M196.933971,12.4579527 L215.352789,12.4579527 C218.020856,12.4579527 219.943146,12.984381 221.119965,14.0366293 C222.298921,15.0900942 222.886567,16.7992374 222.886567,19.1640591 L222.886567,30.7603833 L218.062067,30.7603833 L218.062067,19.7926711 C218.062067,18.4475571 217.858757,17.5601407 217.456105,17.1310302 C217.050095,16.7003991 216.220674,16.4856917 214.963264,16.4856917 L212.271386,16.4856917 L212.271386,30.7603833 L207.37759,30.7603833 L207.37759,16.4856917 L201.759081,16.4856917 L201.759081,30.7603833 L196.933971,30.7603833 L196.933971,12.4579527 Z M59.1698472,26.835132 L64.2639007,26.835132 L64.2639007,30.7603833 L57.7579698,30.7603833 C56.1092024,30.7603833 54.755937,30.5873402 53.6963421,30.2427744 C52.6355261,29.8985128 51.7145242,29.3401522 50.929673,28.5731665 C50.088652,27.7350173 49.430183,26.7134848 48.95335,25.5106981 C48.4768223,24.3066948 48.2377953,23.0297033 48.2377953,21.6842852 C48.2377953,20.2722652 48.4743801,18.9514806 48.9448024,17.7237562 C49.4158352,16.4972482 50.0776623,15.471154 50.929673,14.6451695 C51.7264298,13.8775756 52.6593373,13.3198232 53.7296166,12.9743451 C54.799896,12.6300835 56.1440032,12.4579527 57.7579698,12.4579527 L64.2639007,12.4579527 L64.2639007,16.4163528 L59.1698472,16.4163528 C56.9166436,16.4163528 55.3652575,16.8092733 54.5126362,17.5935937 C53.6606254,18.3797388 53.2366043,19.7430998 53.2366043,21.6842852 C53.2366043,22.8049601 53.4106087,23.7309994 53.7564805,24.4639238 C54.1047944,25.1992812 54.6432921,25.7910949 55.3704471,26.2417978 C55.7306666,26.456201 56.1479718,26.6100847 56.6238889,26.6991913 C57.0995008,26.7895143 57.9481535,26.835132 59.1698472,26.835132 L59.1698472,26.835132 Z M88.4184512,12.4579527 L97.4413397,12.4579527 C100.167713,12.4579527 102.113814,12.9761698 103.279643,14.0104752 C104.446999,15.0475176 105.030677,16.764568 105.030677,19.1640591 L105.030677,30.7603833 L100.239452,30.7603833 L100.239452,19.7580016 C100.239452,18.3900788 100.029425,17.5038789 99.6078464,17.0963607 C99.1865727,16.6894508 98.3397516,16.4856917 97.0704357,16.4856917 L93.2081498,16.4856917 L93.2081498,30.7603833 L88.4184512,30.7603833 L88.4184512,12.4579527 Z M109.926915,12.4579527 L109.926915,9.96874673 L114.71814,9.96874673 L114.71814,12.4579527 L119.784413,12.4579527 L119.784413,16.8448551 L114.71814,16.8448551 L114.71814,23.4995656 C114.71814,24.8571484 114.946787,25.7986978 115.40683,26.3245179 C115.8684,26.8500338 116.669736,27.1143124 117.815722,27.1143124 L119.784413,27.1143124 L119.784413,30.7603833 L115.40683,30.7603833 C113.637176,30.7603833 112.281468,30.2643668 111.340013,29.2759833 C110.397337,28.2851668 109.926915,26.8713221 109.926915,25.0265422 L109.926915,12.4907975 L109.926915,12.4579527 Z M85.4933466,21.6265027 C85.4933466,24.4973768 84.6269881,26.7895143 82.8921343,28.5032194 C81.1594173,30.2150997 78.8237906,31.0733207 75.8846435,31.0733207 C72.9464123,31.0733207 70.6013221,30.2126668 68.8508995,28.4940958 C67.1007821,26.775829 66.2261813,24.4861245 66.2261813,21.6265027 C66.2261813,18.7547163 67.1007821,16.4549758 68.8508995,14.7327555 C70.6013221,13.0081022 72.9464123,12.1459276 75.8846435,12.1459276 C78.8024216,12.1459276 81.1331641,13.0081022 82.8759549,14.7327555 C84.6205775,16.4549758 85.4933466,18.7547163 85.4933466,21.6265027 L85.4933466,21.6265027 Z M71.2594859,21.6170751 C71.2594859,23.3593672 71.6624434,24.7160377 72.469274,25.6901277 C73.2761047,26.6617848 74.4053013,27.1471571 75.8510637,27.1471571 C77.2885838,27.1471571 78.4144225,26.6617848 79.233464,25.6901277 C80.0522002,24.7160377 80.4606525,23.3593672 80.4606525,21.6170751 C80.4606525,19.8769118 80.0552529,18.5211536 79.241401,17.5558831 C78.4281597,16.5875713 77.2974367,16.104936 75.8510637,16.104936 C74.4153753,16.104936 73.2919788,16.5897001 72.4787374,17.5631819 C71.6648855,18.534839 71.2594859,19.8860353 71.2594859,21.6170751 L71.2594859,21.6170751 Z M129.87636,30.7603833 L124.845192,30.7603833 L124.845192,12.4579527 L129.87636,12.4579527 L129.87636,30.7603833 Z" id="Fill-4" fill="#FEFEFE" sketch:type="MSShapeGroup"></path>
                </g>
            </g>
        </g>
    </g>
</svg>